{
    "asset" : {
        "generator" : "Khronos glTF Blender I/O v1.6.16",
        "version" : "2.0"
    },
    "scene" : 0,
    "scenes" : [
        {
            "name" : "Scene",
            "nodes" : [
                0,
                1,
                2,
                3,
                4,
                5,
                6
            ]
        }
    ],
    "nodes" : [
        {
            "name" : "Light",
            "rotation" : [
                0.3120088577270508,
                0.13076725602149963,
                -0.07289961725473404,
                0.9382089376449585
            ],
            "translation" : [
                1.129979133605957,
                5.903861999511719,
                4.096893310546875
            ]
        },
        {
            "name" : "Camera",
            "rotation" : [
                0.48948734998703003,
                -0.31368038058280945,
                0.19433584809303284,
                0.7900888323783875
            ],
            "translation" : [
                -6.801264762878418,
                4.958309173583984,
                7.37954044342041
            ]
        },
        {
            "mesh" : 0,
            "name" : "s-Plane",
            "rotation" : [
                0,
                -0.7071067690849304,
                0,
                0.7071068286895752
            ],
            "scale" : [
                10,
                1,
                10
            ],
            "translation" : [
                0.12452507019042969,
                0,
                0.020647644996643066
            ]
        },
        {
            "mesh" : 1,
            "name" : "p-Rock",
            "rotation" : [
                0,
                -0.7071067690849304,
                0,
                0.7071068286895752
            ],
            "translation" : [
                -3.727975368499756,
                0.1826838254928589,
                0.020647883415222168
            ]
        },
        {
            "mesh" : 2,
            "name" : "p-Rock.001",
            "rotation" : [
                0,
                -0.7071067690849304,
                0,
                0.7071068286895752
            ],
            "translation" : [
                -4.1364641189575195,
                0.3609137535095215,
                -0.47540998458862305
            ]
        },
        {
            "mesh" : 3,
            "name" : "p-Rock.002",
            "rotation" : [
                0,
                -0.7071067690849304,
                0,
                0.7071068286895752
            ],
            "translation" : [
                -4.170757293701172,
                0.17797695100307465,
                0.46033990383148193
            ]
        },
        {
            "mesh" : 4,
            "name" : "p-Rock.003",
            "rotation" : [
                0,
                -0.7071067690849304,
                0,
                0.7071068286895752
            ],
            "translation" : [
                -4.936423301696777,
                0.45936644077301025,
                0.46033990383148193
            ]
        }
    ],
    "meshes" : [
        {
            "name" : "Plane",
            "primitives" : [
                {
                    "attributes" : {
                        "POSITION" : 0,
                        "NORMAL" : 1,
                        "TEXCOORD_0" : 2
                    },
                    "indices" : 3
                }
            ]
        },
        {
            "name" : "Cube.001",
            "primitives" : [
                {
                    "attributes" : {
                        "POSITION" : 4,
                        "NORMAL" : 5,
                        "TEXCOORD_0" : 6
                    },
                    "indices" : 7
                }
            ]
        },
        {
            "name" : "Cube.002",
            "primitives" : [
                {
                    "attributes" : {
                        "POSITION" : 8,
                        "NORMAL" : 9,
                        "TEXCOORD_0" : 10
                    },
                    "indices" : 11
                }
            ]
        },
        {
            "name" : "Cube.003",
            "primitives" : [
                {
                    "attributes" : {
                        "POSITION" : 12,
                        "NORMAL" : 13,
                        "TEXCOORD_0" : 14
                    },
                    "indices" : 15
                }
            ]
        },
        {
            "name" : "Cube.004",
            "primitives" : [
                {
                    "attributes" : {
                        "POSITION" : 16,
                        "NORMAL" : 17,
                        "TEXCOORD_0" : 18
                    },
                    "indices" : 19
                }
            ]
        }
    ],
    "accessors" : [
        {
            "bufferView" : 0,
            "componentType" : 5126,
            "count" : 3032,
            "max" : [
                0.09090910851955414,
                0.7836182117462158,
                1
            ],
            "min" : [
                -0.09090910851955414,
                -1.3849730491638184,
                -1
            ],
            "type" : "VEC3"
        },
        {
            "bufferView" : 1,
            "componentType" : 5126,
            "count" : 3032,
            "type" : "VEC3"
        },
        {
            "bufferView" : 2,
            "componentType" : 5126,
            "count" : 3032,
            "type" : "VEC2"
        },
        {
            "bufferView" : 3,
            "componentType" : 5123,
            "count" : 9504,
            "type" : "SCALAR"
        },
        {
            "bufferView" : 4,
            "componentType" : 5126,
            "count" : 186,
            "max" : [
                0.25044456124305725,
                0.21061936020851135,
                0.23446333408355713
            ],
            "min" : [
                -0.16879013180732727,
                -0.1730654239654541,
                -0.16852068901062012
            ],
            "type" : "VEC3"
        },
        {
            "bufferView" : 5,
            "componentType" : 5126,
            "count" : 186,
            "type" : "VEC3"
        },
        {
            "bufferView" : 6,
            "componentType" : 5126,
            "count" : 186,
            "type" : "VEC2"
        },
        {
            "bufferView" : 7,
            "componentType" : 5123,
            "count" : 900,
            "type" : "SCALAR"
        },
        {
            "bufferView" : 8,
            "componentType" : 5126,
            "count" : 125,
            "max" : [
                0.2082541286945343,
                0.1781928688287735,
                0.1528468281030655
            ],
            "min" : [
                -0.19403766095638275,
                -0.17560507357120514,
                -0.18723511695861816
            ],
            "type" : "VEC3"
        },
        {
            "bufferView" : 9,
            "componentType" : 5126,
            "count" : 125,
            "type" : "VEC3"
        },
        {
            "bufferView" : 10,
            "componentType" : 5126,
            "count" : 125,
            "type" : "VEC2"
        },
        {
            "bufferView" : 11,
            "componentType" : 5123,
            "count" : 576,
            "type" : "SCALAR"
        },
        {
            "bufferView" : 12,
            "componentType" : 5126,
            "count" : 125,
            "max" : [
                0.1668892800807953,
                0.1661369353532791,
                0.16798661649227142
            ],
            "min" : [
                -0.17325712740421295,
                -0.18015247583389282,
                -0.16871650516986847
            ],
            "type" : "VEC3"
        },
        {
            "bufferView" : 13,
            "componentType" : 5126,
            "count" : 125,
            "type" : "VEC3"
        },
        {
            "bufferView" : 14,
            "componentType" : 5126,
            "count" : 125,
            "type" : "VEC2"
        },
        {
            "bufferView" : 15,
            "componentType" : 5123,
            "count" : 576,
            "type" : "SCALAR"
        },
        {
            "bufferView" : 16,
            "componentType" : 5126,
            "count" : 259,
            "max" : [
                0.5080296993255615,
                0.4576546251773834,
                0.49925556778907776
            ],
            "min" : [
                -0.5608434081077576,
                -0.4605867862701416,
                -0.5493801236152649
            ],
            "type" : "VEC3"
        },
        {
            "bufferView" : 17,
            "componentType" : 5126,
            "count" : 259,
            "type" : "VEC3"
        },
        {
            "bufferView" : 18,
            "componentType" : 5126,
            "count" : 259,
            "type" : "VEC2"
        },
        {
            "bufferView" : 19,
            "componentType" : 5123,
            "count" : 1296,
            "type" : "SCALAR"
        }
    ],
    "bufferViews" : [
        {
            "buffer" : 0,
            "byteLength" : 36384,
            "byteOffset" : 0
        },
        {
            "buffer" : 0,
            "byteLength" : 36384,
            "byteOffset" : 36384
        },
        {
            "buffer" : 0,
            "byteLength" : 24256,
            "byteOffset" : 72768
        },
        {
            "buffer" : 0,
            "byteLength" : 19008,
            "byteOffset" : 97024
        },
        {
            "buffer" : 0,
            "byteLength" : 2232,
            "byteOffset" : 116032
        },
        {
            "buffer" : 0,
            "byteLength" : 2232,
            "byteOffset" : 118264
        },
        {
            "buffer" : 0,
            "byteLength" : 1488,
            "byteOffset" : 120496
        },
        {
            "buffer" : 0,
            "byteLength" : 1800,
            "byteOffset" : 121984
        },
        {
            "buffer" : 0,
            "byteLength" : 1500,
            "byteOffset" : 123784
        },
        {
            "buffer" : 0,
            "byteLength" : 1500,
            "byteOffset" : 125284
        },
        {
            "buffer" : 0,
            "byteLength" : 1000,
            "byteOffset" : 126784
        },
        {
            "buffer" : 0,
            "byteLength" : 1152,
            "byteOffset" : 127784
        },
        {
            "buffer" : 0,
            "byteLength" : 1500,
            "byteOffset" : 128936
        },
        {
            "buffer" : 0,
            "byteLength" : 1500,
            "byteOffset" : 130436
        },
        {
            "buffer" : 0,
            "byteLength" : 1000,
            "byteOffset" : 131936
        },
        {
            "buffer" : 0,
            "byteLength" : 1152,
            "byteOffset" : 132936
        },
        {
            "buffer" : 0,
            "byteLength" : 3108,
            "byteOffset" : 134088
        },
        {
            "buffer" : 0,
            "byteLength" : 3108,
            "byteOffset" : 137196
        },
        {
            "buffer" : 0,
            "byteLength" : 2072,
            "byteOffset" : 140304
        },
        {
            "buffer" : 0,
            "byteLength" : 2592,
            "byteOffset" : 142376
        }
    ],
    "buffers" : [
        {
            "byteLength" : 144968,
            "uri" : "data:application/octet-stream;base64,"
        }
    ]
}
