{
    "asset" : {
        "generator" : "Khronos glTF Blender I/O v1.6.16",
        "version" : "2.0"
    },
    "scene" : 0,
    "scenes" : [
        {
            "name" : "Scene",
            "nodes" : [
                0,
                1,
                2,
                3,
                4,
                5,
                6
            ]
        }
    ],
    "nodes" : [
        {
            "name" : "Light",
            "rotation" : [
                0.3120088577270508,
                0.13076725602149963,
                -0.07289961725473404,
                0.9382089376449585
            ],
            "translation" : [
                1.129979133605957,
                5.903861999511719,
                4.096893310546875
            ]
        },
        {
            "name" : "Camera",
            "rotation" : [
                0.48948734998703003,
                -0.31368038058280945,
                0.19433584809303284,
                0.7900888323783875
            ],
            "translation" : [
                -2.2995314598083496,
                4.958309173583984,
                7.37954044342041
            ]
        },
        {
            "mesh" : 0,
            "name" : "p-Rock",
            "rotation" : [
                0,
                -0.7071067690849304,
                0,
                0.7071068286895752
            ],
            "translation" : [
                0.7737579345703125,
                0.1826838254928589,
                0.020647883415222168
            ]
        },
        {
            "mesh" : 1,
            "name" : "p-Rock.001",
            "rotation" : [
                0,
                -0.7071067690849304,
                0,
                0.7071068286895752
            ],
            "translation" : [
                0.36526918411254883,
                1.3252065181732178,
                -0.47540998458862305
            ]
        },
        {
            "mesh" : 2,
            "name" : "p-Rock.002",
            "rotation" : [
                0,
                -0.7071067690849304,
                0,
                0.7071068286895752
            ],
            "translation" : [
                0.3309760093688965,
                1.0444427728652954,
                0.46033990383148193
            ]
        },
        {
            "mesh" : 3,
            "name" : "p-Rock.003",
            "rotation" : [
                0,
                -0.7071067690849304,
                0,
                0.7071068286895752
            ],
            "translation" : [
                -0.434689998626709,
                6.007543563842773,
                0.46033990383148193
            ]
        },
        {
            "mesh" : 4,
            "name" : "s-ground",
            "scale" : [
                1,
                0.33908677101135254,
                1
            ],
            "translation" : [
                0,
                0.08360441029071808,
                0
            ]
        }
    ],
    "meshes" : [
        {
            "name" : "Cube.001",
            "primitives" : [
                {
                    "attributes" : {
                        "POSITION" : 0,
                        "NORMAL" : 1,
                        "TEXCOORD_0" : 2
                    },
                    "indices" : 3
                }
            ]
        },
        {
            "name" : "Cube.002",
            "primitives" : [
                {
                    "attributes" : {
                        "POSITION" : 4,
                        "NORMAL" : 5,
                        "TEXCOORD_0" : 6
                    },
                    "indices" : 7
                }
            ]
        },
        {
            "name" : "Cube.003",
            "primitives" : [
                {
                    "attributes" : {
                        "POSITION" : 8,
                        "NORMAL" : 9,
                        "TEXCOORD_0" : 10
                    },
                    "indices" : 11
                }
            ]
        },
        {
            "name" : "Cube.004",
            "primitives" : [
                {
                    "attributes" : {
                        "POSITION" : 12,
                        "NORMAL" : 13,
                        "TEXCOORD_0" : 14
                    },
                    "indices" : 15
                }
            ]
        },
        {
            "name" : "Cube.007",
            "primitives" : [
                {
                    "attributes" : {
                        "POSITION" : 16,
                        "NORMAL" : 17,
                        "TEXCOORD_0" : 18
                    },
                    "indices" : 19
                }
            ]
        }
    ],
    "accessors" : [
        {
            "bufferView" : 0,
            "componentType" : 5126,
            "count" : 186,
            "max" : [
                0.25044456124305725,
                0.21061936020851135,
                0.23446333408355713
            ],
            "min" : [
                -0.16879013180732727,
                -0.1730654239654541,
                -0.16852068901062012
            ],
            "type" : "VEC3"
        },
        {
            "bufferView" : 1,
            "componentType" : 5126,
            "count" : 186,
            "type" : "VEC3"
        },
        {
            "bufferView" : 2,
            "componentType" : 5126,
            "count" : 186,
            "type" : "VEC2"
        },
        {
            "bufferView" : 3,
            "componentType" : 5123,
            "count" : 900,
            "type" : "SCALAR"
        },
        {
            "bufferView" : 4,
            "componentType" : 5126,
            "count" : 125,
            "max" : [
                0.2082541286945343,
                0.1781928688287735,
                0.1528468281030655
            ],
            "min" : [
                -0.19403766095638275,
                -0.17560507357120514,
                -0.18723511695861816
            ],
            "type" : "VEC3"
        },
        {
            "bufferView" : 5,
            "componentType" : 5126,
            "count" : 125,
            "type" : "VEC3"
        },
        {
            "bufferView" : 6,
            "componentType" : 5126,
            "count" : 125,
            "type" : "VEC2"
        },
        {
            "bufferView" : 7,
            "componentType" : 5123,
            "count" : 576,
            "type" : "SCALAR"
        },
        {
            "bufferView" : 8,
            "componentType" : 5126,
            "count" : 125,
            "max" : [
                0.1668892800807953,
                0.1661369353532791,
                0.16798661649227142
            ],
            "min" : [
                -0.17325712740421295,
                -0.18015247583389282,
                -0.16871650516986847
            ],
            "type" : "VEC3"
        },
        {
            "bufferView" : 9,
            "componentType" : 5126,
            "count" : 125,
            "type" : "VEC3"
        },
        {
            "bufferView" : 10,
            "componentType" : 5126,
            "count" : 125,
            "type" : "VEC2"
        },
        {
            "bufferView" : 11,
            "componentType" : 5123,
            "count" : 576,
            "type" : "SCALAR"
        },
        {
            "bufferView" : 12,
            "componentType" : 5126,
            "count" : 259,
            "max" : [
                0.5080296993255615,
                0.4576546251773834,
                0.49925556778907776
            ],
            "min" : [
                -0.5608434081077576,
                -0.4605867862701416,
                -0.5493801236152649
            ],
            "type" : "VEC3"
        },
        {
            "bufferView" : 13,
            "componentType" : 5126,
            "count" : 259,
            "type" : "VEC3"
        },
        {
            "bufferView" : 14,
            "componentType" : 5126,
            "count" : 259,
            "type" : "VEC2"
        },
        {
            "bufferView" : 15,
            "componentType" : 5123,
            "count" : 1296,
            "type" : "SCALAR"
        },
        {
            "bufferView" : 16,
            "componentType" : 5126,
            "count" : 24483,
            "max" : [
                10.820549964904785,
                0.29803466796875,
                10.531049728393555
            ],
            "min" : [
                -10.49364185333252,
                -1.7815380096435547,
                -10.407028198242188
            ],
            "type" : "VEC3"
        },
        {
            "bufferView" : 17,
            "componentType" : 5126,
            "count" : 24483,
            "type" : "VEC3"
        },
        {
            "bufferView" : 18,
            "componentType" : 5126,
            "count" : 24483,
            "type" : "VEC2"
        },
        {
            "bufferView" : 19,
            "componentType" : 5123,
            "count" : 144096,
            "type" : "SCALAR"
        }
    ],
    "bufferViews" : [
        {
            "buffer" : 0,
            "byteLength" : 2232,
            "byteOffset" : 0
        },
        {
            "buffer" : 0,
            "byteLength" : 2232,
            "byteOffset" : 2232
        },
        {
            "buffer" : 0,
            "byteLength" : 1488,
            "byteOffset" : 4464
        },
        {
            "buffer" : 0,
            "byteLength" : 1800,
            "byteOffset" : 5952
        },
        {
            "buffer" : 0,
            "byteLength" : 1500,
            "byteOffset" : 7752
        },
        {
            "buffer" : 0,
            "byteLength" : 1500,
            "byteOffset" : 9252
        },
        {
            "buffer" : 0,
            "byteLength" : 1000,
            "byteOffset" : 10752
        },
        {
            "buffer" : 0,
            "byteLength" : 1152,
            "byteOffset" : 11752
        },
        {
            "buffer" : 0,
            "byteLength" : 1500,
            "byteOffset" : 12904
        },
        {
            "buffer" : 0,
            "byteLength" : 1500,
            "byteOffset" : 14404
        },
        {
            "buffer" : 0,
            "byteLength" : 1000,
            "byteOffset" : 15904
        },
        {
            "buffer" : 0,
            "byteLength" : 1152,
            "byteOffset" : 16904
        },
        {
            "buffer" : 0,
            "byteLength" : 3108,
            "byteOffset" : 18056
        },
        {
            "buffer" : 0,
            "byteLength" : 3108,
            "byteOffset" : 21164
        },
        {
            "buffer" : 0,
            "byteLength" : 2072,
            "byteOffset" : 24272
        },
        {
            "buffer" : 0,
            "byteLength" : 2592,
            "byteOffset" : 26344
        },
        {
            "buffer" : 0,
            "byteLength" : 293796,
            "byteOffset" : 28936
        },
        {
            "buffer" : 0,
            "byteLength" : 293796,
            "byteOffset" : 322732
        },
        {
            "buffer" : 0,
            "byteLength" : 195864,
            "byteOffset" : 616528
        },
        {
            "buffer" : 0,
            "byteLength" : 288192,
            "byteOffset" : 812392
        }
    ],
    "buffers" : [
        {
            "byteLength" : 1100584,
            "uri" : "data:application/octet-stream;base64,"
        }
    ]
}
